<svg id="Layer_1" data-name="Layer 1" xmlns="http://www.w3.org/2000/svg" viewBox="0 0 504 363.2"><defs><style>.cls-1{fill-rule:evenodd;}</style></defs><path class="cls-1" d="M365.4,256.34a151.29,151.29,0,0,1,37.8,4.47q62.16,15.4,110.32,83.17l.28.56,27.44-40.32q21.84-30.8,60.48-29.4-34.44,80.65.28,168-38.91,1.41-60.76-29.4l-27.44-40-.28.27q-48.15,67.75-110.32,83.16c-7.28,1.69-13.16,2.8-17.63,3.37q29.12-90.17-5-173.6a6,6,0,0,0-3.36-3.37,4.76,4.76,0,0,0-4.49,0,7.05,7.05,0,0,0-3.63,3.37,7,7,0,0,0,0,4.76q33.33,80.92,3.08,170l-6.72.29q-58.53,0-101.08-29.69-35.55-24.09-65-73.09,29.67-49.53,65-73.36,42.26-29.14,101.07-29.13ZM98,127a27.52,27.52,0,0,1,8.4-20.17,27.82,27.82,0,0,1,20.44-8.4,29.66,29.66,0,0,1,21,8.12,29.07,29.07,0,0,1,8.4,20.45,28.15,28.15,0,0,1-8.4,20.71,28.61,28.61,0,0,1-21,8.69,27.48,27.48,0,0,1-20.16-8.4A28.6,28.6,0,0,1,98,127Zm113.12-9a45.33,45.33,0,0,1,32.48,13.17A46.44,46.44,0,0,1,257,164.5,44.76,44.76,0,0,1,243.88,197a43.71,43.71,0,0,1-32.77,14q-19.87,0-33-14-13.72-13.17-13.72-32.48a45.35,45.35,0,0,1,13.72-33.32,46,46,0,0,1,33-13.17ZM174.44,244a29.86,29.86,0,0,1,20.72,7.84v.56q8.11,8.11,8.11,20.44v3.93a23.42,23.42,0,0,1-8.4,16.51q-7.83,8.4-20.43,8.4A29.37,29.37,0,0,1,155.12,295l-1.68-1.69-5-7.28a22.13,22.13,0,0,1-2.8-8.67l-.28-4.49q0-12.32,8.12-20.44,8.4-8.4,21-8.4Zm119.84,62.17A17.91,17.91,0,0,0,282,310.94a17.13,17.13,0,0,0-4.77,11.75l.28,2a15.26,15.26,0,0,0,2,5.6l2.81,4.2,1.12,1.12a16.76,16.76,0,0,0,10.91,3.63,15.06,15.06,0,0,0,11.48-4.76,15.55,15.55,0,0,0,5-9v-2.8q0-6.45-5-12c-2.8-3-6.62-4.47-11.48-4.47Z" transform="translate(-98 -98.41)"/></svg>