<svg id="Layer_1" data-name="Layer 1" xmlns="http://www.w3.org/2000/svg" viewBox="0 0 522.59 522.69"><path d="M536.67,541.33V262.91L350,112.36,163.33,262.93V541.34H284.67v-168a18.64,18.64,0,0,1,18.66-18.66h93.34a18.64,18.64,0,0,1,18.66,18.66v168Z" transform="translate(-88.74 -18.65)"/><path d="M611.33,248.32l-.1.12L587.61,280l-35.77-28.82L361.74,97.83a19.1,19.1,0,0,0-5.6-3.15,18.5,18.5,0,0,0-17.88,3.14L148.14,251.18l-35.85,28.74L88.74,248.06,350,37.33l96.72,78a.87.87,0,0,1,.09.12L462,127.69v-109l56,0V172.83l3.48,2.81h0L611.22,248A.52.52,0,0,1,611.33,248.32Z" transform="translate(-88.74 -18.65)"/></svg>