<svg id="Layer_1" data-name="Layer 1" xmlns="http://www.w3.org/2000/svg" viewBox="0 0 549.24 559.75"><path d="M607.4,403V34a11,11,0,0,0-1.62,0L268.83,126.12l-42.22,11.59V459a123.77,123.77,0,0,0-79.3-10.64c-55.72,10.2-95.15,50.4-88,89.6s58,63.45,113.62,53.48h0a134.94,134.94,0,0,0,48.78-18.7,100.55,100.55,0,0,0,16.13-10.19,58.72,58.72,0,0,0,23.57-44.13,52.35,52.35,0,0,0,0-11.87c-.33-100.8,0-201.6,0-302.4v-6.45l311-84.84V355.66a123.75,123.75,0,0,0-79.18-10.36c-55.66,10-95.2,50.07-88,89.61s58,63.44,113.62,53.48h0a134.58,134.58,0,0,0,50.4-19.76,72.82,72.82,0,0,0,38.24-45.31v-9.24a52.71,52.71,0,0,0,0-11.09Z" transform="translate(-58.45 -33.97)"/></svg>