<?xml version="1.0" encoding="utf-8"?>
<!-- Generator: Adobe Illustrator 26.0.1, SVG Export Plug-In . SVG Version: 6.00 Build 0)  -->
<svg version="1.1" id="Layer_1" xmlns="http://www.w3.org/2000/svg" xmlns:xlink="http://www.w3.org/1999/xlink" x="0px" y="0px"
	 viewBox="0 0 504 413.5" style="enable-background:new 0 0 504 413.5;" xml:space="preserve">
<g>
	<path d="M93.1,310.2V103.3H15c-8.3,0-15,6.7-15,15l0,0v176.9c0,8.3,6.7,15,15,15L93.1,310.2z"/>
	<path d="M291.7,1L118,103.4v206.8l173.7,102.4l0,0c3.4,2.1,7.9,0.9,10-2.5c0.7-1.1,1-2.4,1-3.8V7.3c0-4-3.2-7.3-7.3-7.3
		C294.1,0,292.8,0.3,291.7,1z"/>
	<path d="M427.5,41.6l-12.8,16.8c-1.1,1.4-0.9,3.3,0.4,4.5c40,37.1,62.6,89.3,62.2,143.8c0.4,54.5-22.1,106.8-62.1,143.8
		c-1.3,1.2-1.5,3.1-0.4,4.5l12.8,16.8c0.6,0.8,1.4,1.3,2.4,1.3c0.9,0.1,1.9-0.2,2.6-0.9c46-42.7,71.9-102.8,71.4-165.6
		c0.5-62.8-25.4-122.9-71.5-165.6c-1.4-1.3-3.6-1.1-4.8,0.3C427.6,41.5,427.6,41.6,427.5,41.6z"/>
	<path d="M450.6,206.8c0.2-48-20.4-93.7-56.5-125.2c-1.4-1.2-3.6-1-4.8,0.4c-0.1,0.1-0.1,0.2-0.2,0.3L377,99.6l0,0
		c-1,1.4-0.7,3.4,0.6,4.5c29.8,25.7,46.8,63.3,46.3,102.7c0.4,39.4-16.5,77-46.3,102.7c-1.3,1.1-1.6,3-0.6,4.5l12.2,17.4l0,0
		c1,1.5,3.1,1.9,4.7,0.9c0.1-0.1,0.2-0.2,0.3-0.2C430.3,300.4,450.9,254.7,450.6,206.8z"/>
	<path d="M339.5,272.2l10.7,18.6c0.5,0.8,1.3,1.4,2.2,1.6c0.9,0.2,1.9,0,2.7-0.5c26.9-19.9,42.6-51.5,42.2-85
		c0.5-33.5-15.2-65.2-42.2-85.1c-1.5-1.1-3.7-0.7-4.7,0.8c-0.1,0.1-0.1,0.2-0.2,0.3l-10.7,18.5c-0.8,1.5-0.4,3.4,1,4.4
		c33.7,25.9,40,74.3,14.1,108c-4.1,5.3-8.8,10.1-14.1,14.1C339.1,268.8,338.7,270.7,339.5,272.2L339.5,272.2z"/>
</g>
</svg>
